<?xml version="1.0" encoding="utf-8"?>
<svg width="973" height="270" xmlns="http://www.w3.org/2000/svg" version="1.1" viewBox="0 350 973 270">
  <defs>
    <linearGradient id="logoGradient" x1="100" y1="350" x2="100" y2="620" gradientUnits="userSpaceOnUse">
      <stop offset="0" style="stop-color:#1a237e;stop-opacity:1"/>
      <stop offset="0.3" style="stop-color:#423e8c;stop-opacity:1"/>
      <stop offset="0.5" style="stop-color:#925277;stop-opacity:1"/>
      <stop offset="0.604" style="stop-opacity: 1; stop-color: rgb(255, 138, 0);"/>
      <stop offset="0.7" style="stop-color:#fa5402;stop-opacity:1"/>
      <stop offset="1" style="stop-color:#fa5402;stop-opacity:1"/>
    </linearGradient>
    <linearGradient id="textGradient" x1="600" y1="350" x2="600" y2="620" gradientUnits="userSpaceOnUse">
      <stop offset="0" style="stop-color:#1a237e;stop-opacity:1"/>
      <stop offset="0.4" style="stop-color:#423e8c;stop-opacity:1"/>
      <stop offset="0.5" style="stop-color:#925277;stop-opacity:1"/>
      <stop offset="0.6" style="stop-opacity: 1; stop-color: rgb(255, 137, 1);"/>
      <stop offset="0.675" style="stop-color:#fa5402;stop-opacity:1"/>
      <stop offset="1" style="stop-color:#fa5402;stop-opacity:1"/>
    </linearGradient>
  </defs>
  <g class="layer" transform="matrix(1, 0, 0, 1, -24, -7)">
    <title>WMOTO-AI Logo</title>
    <path d="M 207.717 369 C 208.427 369.18 209.137 369.37 209.867 369.55 C 228.587 374.62 246.357 383.95 260.717 397 C 261.637 397.84 261.637 397.84 262.587 398.69 C 284.707 419.02 301.417 447.61 302.867 478.2 C 303.627 505.47 300.607 531.06 286.717 555 C 286.367 555.6 286.017 556.21 285.657 556.83 C 280.257 566.01 273.837 574.1 266.717 582 C 266.127 582.67 265.527 583.33 264.917 584.02 C 250.627 599.15 231.457 609.11 211.717 615 C 210.127 615.47 210.127 615.47 208.517 615.96 C 177.807 624.29 143.647 620.34 115.727 604.9 C 82.077 585.42 61.687 556.24 51.697 519.19 C 44.167 488.5 50.187 453.77 66.217 426.88 C 69.937 420.87 74.097 415.33 78.717 410 C 79.417 409.17 80.107 408.34 80.827 407.48 C 97.047 388.71 119.027 375.99 142.807 369.52 C 144.547 369.05 146.277 368.54 148.007 368.03 C 166.667 363.33 189.097 364.17 207.717 369 Z M 72.717 459 C 77.667 459 82.617 459 87.717 459 C 88.387 461.01 116.717 546 116.717 549 C 126.287 549 135.857 549 145.717 549 C 146.377 546.03 171.58 474.357 171.354 473.385 C 171.158 474.335 195.717 546 195.717 549 C 207.597 548.5 207.597 548.5 219.717 548 C 222.687 539.75 225.657 531.5 228.717 523 C 238.287 523 247.857 523 257.717 523 C 258.707 526.92 263.717 547 263.717 549 C 265.037 549.33 266.357 549.66 267.717 550 C 262.927 557.23 257.667 563.69 251.717 570 C 251.167 570.62 250.617 571.23 250.047 571.87 C 233.547 589.59 206.537 600.34 182.677 601.22 C 150.807 601.96 123.507 591.87 100.207 569.83 C 80.837 550.98 69.197 524.5 68.417 497.45 C 68.397 495.2 68.407 488.33 68.407 487.12 C 68.527 477.3 69.607 468.34 72.717 459 Z M 176.027 384.44 C 176.787 384.44 177.557 384.45 178.337 384.45 C 190.397 384.55 201.397 385.56 212.717 390 C 213.417 390.26 214.117 390.53 214.837 390.8 C 242.467 401.3 263.317 422.12 276.147 448.46 C 282.097 461.9 284.097 475.65 284.027 490.25 C 284.027 492.01 284.027 492.01 284.027 493.81 C 283.927 502.84 282.967 511.25 280.717 520 C 278.067 517.35 260.717 443.33 260.717 440 C 251.477 440 242.237 440 232.717 440 C 231.727 443.3 210.717 503 208.717 505 C 206.527 498.58 187.717 443 187.717 440 C 177.157 440 166.597 440 155.717 440 C 154.727 443.63 132.737 507.49 131.717 510 C 129.487 506.66 108.717 443 108.717 440 C 99.807 440 90.897 440 81.717 440 C 90.357 418.39 112.267 401.95 132.917 392.54 C 147.187 386.74 160.757 384.26 176.027 384.44 Z M 245.379 473.832 C 245.709 473.832 251.717 499 251.717 502 C 246.767 502 241.817 502 236.717 502 C 238.027 498.02 244.379 474.832 245.379 473.832 Z" fill-rule="evenodd" style="fill: url(#logoGradient);"/>
    <path d="M 319 437 C 326.59 437 334.18 437 342 437 C 342.33 438.97 353.44 505.3 354 508 C 354.16 507.17 354.32 506.34 354.49 505.48 C 356 497.66 367.42 439.33 368 437 C 375.26 437 382.52 437 390 437 C 393.52 453.63 396.78 470.28 399.81 487 C 401.19 494.59 402.58 502.18 404 510 C 407.96 485.91 411.92 461.82 416 437 C 423.59 437 431.18 437 439 437 C 437.4 448.02 419.38 540.01 417 550 C 409.08 550 401.16 550 393 550 C 387.84 527.42 383.36 504.74 379 482 C 376.87 488.91 365.51 542.89 364 550 C 356.08 550 348.16 550 340 550 C 333.71 520.4 319 442 319 437 Z" style="fill: url(#textGradient);"/>
    <path d="M 450 437 C 460.23 437 470.46 437 481 437 C 486.61 458.45 492.22 479.9 498 502 C 503.94 480.55 509.88 459.1 516 437 C 525.9 437 535.8 437 546 437 C 546 474.29 546 511.58 546 550 C 539.07 550 532.14 550 525 550 C 524.67 525.91 524.34 501.82 524 477 C 518.16 499.15 506 545 504 550 C 499.71 550 495.42 550 491 550 C 490.54 548.23 473.31 482.66 471 474 C 470.67 499.08 470.34 524.16 470 550 C 463.4 550 456.8 550 450 550 C 450 512.71 450 475.42 450 437 Z" style="fill: url(#textGradient);"/>
    <path d="M 600.31 435.5 C 601.55 435.51 601.55 435.51 602.82 435.52 C 613.16 435.81 622.56 439.69 630 447 C 637.36 455.92 638.46 466.41 638.4 477.59 C 638.4 478.76 638.4 486.11 638.39 488.59 C 638.37 492.36 638.41 509.37 638.41 510.51 C 638.3 523.85 635.56 534.78 625.94 544.25 C 617.47 551.32 607.73 552.86 596.97 552.38 C 586.44 551.37 577.2 548.19 570.29 539.96 C 563.49 530.56 562.54 520.86 562.56 509.5 C 562.56 508.23 562.48 475.83 562.47 473.99 C 562.56 463.03 565.11 452.99 573 445 C 581.11 438.27 589.85 435.42 600.31 435.5 Z M 607.69 456.44 C 601.18 453.9 595.21 454.11 590 459 C 586.43 464.73 585.53 469.07 585.47 475.78 C 585.48 476.91 585.56 506.76 585.57 507.91 C 585.55 515.31 585.79 521.26 589 528 C 591.64 531.09 593.42 532.79 597.51 533.34 C 601.83 533.4 606.12 533.64 609.56 530.65 C 614.43 525.09 615.47 519.5 615.56 512.25 C 615.55 511.12 615.5 494.56 615.52 490.89 C 615.54 488.48 615.54 481.34 615.53 480.19 C 615.56 476.09 615.54 472.08 615 468 C 613.54 463.2 612.02 459.23 607.69 456.44 Z" fill-rule="evenodd" style="fill: url(#textGradient);"/>
    <path d="m645,437c24,0 48,0 70,0c0,6.6 0,13.2 0,20c-7.59,0 -15.18,0 -23,0c0,30.69 0,61.38 0,93c-7.59,0 -15.18,0 -23,0c0,-30.69 0,-61.38 0,-93c-7.92,0 -15.84,0 -24,0c0,-6.6 0,-13.2 0,-20z" style="fill: url(#textGradient);"/>
    <path d="M 759.438 435.563 C 760.688 435.573 760.688 435.573 761.958 435.583 C 768.298 435.743 773.458 436.773 778.998 440.003 C 780.047 440.573 781.108 441.153 782.188 441.753 C 790.618 448.503 795.268 456.233 796.538 467.063 C 797.068 472.073 797.188 488.852 797.188 490.823 C 797.188 493.793 797.208 496.773 797.228 499.743 C 797.277 516.203 797.147 531.313 785.358 543.983 C 775.708 552.233 764.287 552.652 752.257 552.183 C 743.578 551.493 736.228 546.363 730.307 540.263 C 722.727 531.113 721.387 520.203 721.507 508.713 C 721.498 507.483 721.517 499.863 721.537 497.293 C 721.557 493.383 721.557 475.713 721.557 474.513 C 721.677 463.763 723.727 454.233 730.998 446.003 C 739.468 438.583 748.267 435.423 759.438 435.563 Z M 764.63 455.63 C 757.5 453.93 753.22 455.04 748 460.01 C 745.29 465.66 744.66 470.34 744.64 476.58 C 744.65 477.68 744.76 493.78 744.76 497.35 C 744.77 499.7 744.83 513 744.84 514 C 744.89 519.75 746 524.02 749 529.01 C 751.65 531.39 753.67 532.79 757.22 533.35 C 761.89 533.53 765.44 533.27 769.01 530.01 C 772.71 524.16 773.47 519.69 773.48 512.82 C 773.47 511.63 773.32 494.23 773.3 490.37 C 773.29 487.83 773.19 473.46 773.18 472.38 C 773.16 469.81 773.07 467.4 772.63 464.86 C 771.26 460.8 768.29 457.75 764.63 455.63 Z" fill-rule="evenodd" style="fill: url(#textGradient);"/>
    <path d="m811,489c10.89,0 21.78,0 33,0c0,5.61 0,11.22 0,17c-10.89,0 -21.78,0 -33,0c0,-5.61 0,-11.22 0,-17z" style="fill: url(#textGradient);"/>
    <path d="M 876 437 C 885.24 437 894.48 437 904 437 C 909.49 455.62 930.5 539.29 933 550 C 925.41 550 917.82 550 910 550 C 909.17 546.58 904.73 529.62 904.73 527.62 C 895.16 527.95 885.86 527.66 876 528 C 874.35 535.26 872.7 542.52 871 550 C 863.41 550 855.82 550 848 550 C 851.04 536.94 875.25 440 876 437 Z M 890 465 C 889.67 465 889.34 465 889 465 C 888 467 881.15 497.63 879 508 C 885.6 508 892.2 508 899 508 C 898.41 502.67 891.13 469.68 890 465 Z" fill-rule="evenodd" style="fill: url(#textGradient);"/>
    <path d="m949,437c7.92,0 15.84,0 24,0c0,37.29 0,74.58 0,113c-7.92,0 -15.84,0 -24,0c0,-37.29 0,-74.58 0,-113z" style="fill: url(#textGradient);"/>
  </g>
</svg>